<svg xmlns="http://www.w3.org/2000/svg" viewBox="0 0 256 256" role="img" aria-label="PMS 内网应用连接助手图标">
  <defs>
    <linearGradient id="bg" x1="32" y1="24" x2="224" y2="232" gradientUnits="userSpaceOnUse">
      <stop stop-color="#315F9D"/>
      <stop offset="1" stop-color="#0A8F78"/>
    </linearGradient>
  </defs>
  <rect x="12" y="12" width="232" height="232" rx="54" fill="url(#bg)"/>
  <path d="M80 157h-7c-20 0-36-15-36-34 0-17 13-32 31-34 7-25 30-43 58-43 29 0 54 20 59 47 20 2 35 18 35 38 0 21-18 38-40 38h-5" fill="none" stroke="#fff" stroke-width="14" stroke-linecap="round" stroke-linejoin="round"/>
  <rect x="74" y="129" width="108" height="54" rx="16" fill="#fff"/>
  <circle cx="104" cy="156" r="10" fill="#315F9D"/>
  <circle cx="152" cy="156" r="10" fill="#0A8F78"/>
  <path d="M114 156h28" stroke="#173B68" stroke-width="10" stroke-linecap="round"/>
</svg>
